HIERARCHY
ROOT Hips
{
	OFFSET 0.000000 0.000000 0.000000
	CHANNELS 6 Xposition Yposition Zposition Zrotation Yrotation Xrotation 
	JOINT LeftUpLeg_virtual
	{
		OFFSET 0.000000 0.000000 0.000000
		CHANNELS 3 Zrotation Yrotation Xrotation
		JOINT LeftUpLeg
		{
			OFFSET 10.205400 -3.823500 0.155100
			CHANNELS 3 Zrotation Yrotation Xrotation
			JOINT LeftLeg
			{
				OFFSET 0.708757 -12.982077 0.567790
				CHANNELS 3 Zrotation Yrotation Xrotation
				JOINT LeftFoot
				{
					OFFSET -0.708756 -10.717838 -2.184338
					CHANNELS 3 Zrotation Yrotation Xrotation
					JOINT LeftToeBase
					{
						OFFSET 0.108149 -7.191104 7.560241
						CHANNELS 3 Zrotation Yrotation Xrotation
						End Site
						{
							OFFSET 0.000000 0.000000 0.000000
						}
					}
				}
			}
		}
	}
	JOINT RightUpLeg_virtual
	{
		OFFSET 0.000000 0.000000 0.000000
		CHANNELS 3 Zrotation Yrotation Xrotation
		JOINT RightUpLeg
		{
			OFFSET -10.205400 -3.823500 0.005500
			CHANNELS 3 Zrotation Yrotation Xrotation
			JOINT RightLeg
			{
				OFFSET -0.708756 -12.982134 0.610632
				CHANNELS 3 Zrotation Yrotation Xrotation
				JOINT RightFoot
				{
					OFFSET 0.708754 -10.717769 -1.945823
					CHANNELS 3 Zrotation Yrotation Xrotation
					JOINT RightToeBase
					{
						OFFSET -0.108140 -7.191069 7.372968
						CHANNELS 3 Zrotation Yrotation Xrotation
						End Site
						{
							OFFSET 0.000000 0.000000 0.000000
						}
					}
				}
			}
		}
	}
	JOINT Spine_virtual
	{
		OFFSET 0.000000 0.000000 0.000000
		CHANNELS 3 Zrotation Yrotation Xrotation
		JOINT Spine
		{
			OFFSET 0.000000 6.876099 0.125700
			CHANNELS 3 Zrotation Yrotation Xrotation
			JOINT Spine1
			{
				OFFSET 0.000000 8.022060 0.146608
				CHANNELS 3 Zrotation Yrotation Xrotation
				JOINT Spine2
				{
					OFFSET 0.000000 9.168068 0.167552
					CHANNELS 3 Zrotation Yrotation Xrotation
					JOINT Neck_virtual
					{
						OFFSET 0.000000 0.000000 0.000000
						CHANNELS 3 Zrotation Yrotation Xrotation
						JOINT Neck
						{
							OFFSET 0.000000 10.314075 0.188496
							CHANNELS 3 Zrotation Yrotation Xrotation
							JOINT Head
							{
								OFFSET 0.000000 7.643700 -2.377400
								CHANNELS 3 Zrotation Yrotation Xrotation
								End Site
								{
									OFFSET 0.000000 0.000000 0.000000
								}
							}
						}
					}
					JOINT LeftShoulder_virtual
					{
						OFFSET 0.000000 0.000000 0.000000
						CHANNELS 3 Zrotation Yrotation Xrotation
						JOINT LeftShoulder
						{
							OFFSET 4.392200 8.824978 0.174984
							CHANNELS 3 Zrotation Yrotation Xrotation
							JOINT LeftArm
							{
								OFFSET 8.771219 -2.981674 -0.026999
								CHANNELS 3 Zrotation Yrotation Xrotation
								JOINT LeftForeArm
								{
									OFFSET 8.512804 0.000000 -0.000000
									CHANNELS 3 Zrotation Yrotation Xrotation
									JOINT LeftHand
									{
										OFFSET 18.484802 0.000000 -0.000000
										CHANNELS 3 Zrotation Yrotation Xrotation
										End Site
										{
											OFFSET 0.000000 0.000000 0.000000
										}
									}
								}
							}
						}
					}
					JOINT RightShoulder_virtual
					{
						OFFSET 0.000000 0.000000 0.000000
						CHANNELS 3 Zrotation Yrotation Xrotation
						JOINT RightShoulder
						{
							OFFSET -4.392200 8.824993 0.141379
							CHANNELS 3 Zrotation Yrotation Xrotation
							JOINT RightArm
							{
								OFFSET -8.771282 -2.981682 -0.094208
								CHANNELS 3 Zrotation Yrotation Xrotation
								JOINT RightForeArm
								{
									OFFSET -8.494598 0.000000 0.000000
									CHANNELS 3 Zrotation Yrotation Xrotation
									JOINT RightHand
									{
										OFFSET -18.483803 0.000000 0.000001
										CHANNELS 3 Zrotation Yrotation Xrotation
										End Site
										{
											OFFSET 0.000000 0.000000 0.000000
										}
									}
								}
							}
						}
					}
				}
			}
		}
	}
}
MOTION
Frames: 14
Frame Time: 0.033333
-7.208143 34.968124 3.708564 -179.692974 43.829204 -179.924641 -0.329002 -0.509685 8.556424 -20.017773 14.344949 -26.651031 16.643848 4.411535 24.908264 -4.143557 -2.087177 6.908681 0.000000 0.000000 0.000000 2.717923 2.035705 7.583247 -1.942408 5.161013 -33.953700 -8.713522 5.998024 26.104618 10.071278 1.679755 26.080256 0.000000 0.000000 0.000000 0.887788 1.983209 -2.072383 3.878890 2.843786 0.316625 -1.565900 -4.995468 18.930472 -0.005099 -0.067818 0.045031 -1.454543 -3.898227 22.085268 -2.503535 -4.305615 22.396272 0.000000 0.000000 0.000000 -0.160020 -3.647150 18.295099 -1.184769 -12.308183 0.646093 -69.283308 -24.723512 -0.890544 -146.797950 -79.971495 157.668005 0.000000 0.000000 0.000000 -3.421995 -2.003498 17.790814 21.959191 24.999956 -2.498185 65.678518 14.012737 4.212442 -160.172867 69.138125 -158.456796 0.000000 0.000000 0.000000 
-7.235032 35.074024 3.592503 -179.759992 44.614738 -179.945883 -0.608141 -0.675544 8.933098 -20.153855 14.911857 -26.628198 16.808249 4.541815 24.357988 -4.159251 -2.232113 7.041024 0.000000 0.000000 0.000000 2.814765 1.901926 7.847460 -2.280575 5.573008 -34.065954 -8.895153 6.024595 25.287882 10.447159 1.511207 26.753240 0.000000 0.000000 0.000000 0.836355 1.753365 -1.627356 4.016271 2.969338 -0.047080 -1.459379 -4.991178 18.742454 0.008280 -0.101267 0.005008 -1.347379 -3.775723 22.067802 -1.915374 -4.896369 22.840760 0.000000 0.000000 0.000000 -0.131042 -3.512703 18.207761 -1.622210 -12.645678 0.531287 -68.531079 -24.325358 -1.916537 -148.183823 -79.980538 159.105705 0.000000 0.000000 0.000000 -3.374053 -1.832492 17.744616 22.175077 25.613853 -2.032421 66.425994 15.164277 5.834101 -159.342986 69.286750 -157.437691 0.000000 0.000000 0.000000 
-7.260402 35.186886 3.517911 -179.820262 45.456521 179.846203 -0.990975 -1.075132 9.137217 -20.074944 15.370274 -26.374753 17.384373 4.605083 24.110238 -4.310952 -2.487307 7.175083 0.000000 0.000000 0.000000 3.018398 1.366119 7.809298 -2.615267 6.054916 -33.948335 -8.984740 6.062953 24.332433 11.003086 1.480660 27.547249 0.000000 0.000000 0.000000 0.777263 1.436043 -1.240229 4.190238 3.293032 -0.189514 -1.283325 -4.868703 18.590692 -0.007036 -0.109611 -0.057556 -1.128536 -3.630875 21.905482 -1.306054 -5.339234 23.385965 0.000000 0.000000 0.000000 -0.053505 -3.583185 17.968238 -2.176541 -13.084423 0.695498 -67.850075 -23.682054 -2.365513 -149.114969 -80.039558 160.194273 0.000000 0.000000 0.000000 -3.279938 -1.838742 17.493796 22.323526 26.010296 -1.467736 67.333699 16.333214 6.626290 -157.823378 69.791296 -156.039633 0.000000 0.000000 0.000000 
-7.268959 35.242859 3.466724 -179.904915 46.359793 179.858210 -1.093665 -1.398617 9.007381 -20.459383 15.807083 -26.108103 18.165721 4.424953 23.813451 -4.439015 -2.539623 7.536881 0.000000 0.000000 0.000000 3.024474 0.870567 7.362933 -2.740275 6.505058 -33.748668 -8.981682 6.010490 23.496906 11.540881 1.502096 28.275566 0.000000 0.000000 0.000000 0.679021 1.051731 -1.134054 4.290427 3.505852 -0.271344 -1.211964 -4.826202 18.290439 0.027945 -0.098448 0.011339 -1.049349 -3.629304 21.694692 -0.799039 -5.817497 23.917261 0.000000 0.000000 0.000000 0.037290 -3.315778 17.778030 -2.890179 -13.469098 0.756114 -67.725881 -22.612516 -1.965545 -148.469625 -80.342088 159.744014 0.000000 0.000000 0.000000 -3.238911 -1.724683 17.312257 22.280723 26.297033 -1.069652 68.154237 16.919528 6.847500 -155.357625 70.475914 -153.886867 0.000000 0.000000 0.000000 
-7.256731 35.247005 3.396905 -179.989760 47.284635 179.850014 -1.273775 -1.375213 8.637391 -20.569443 16.181862 -25.793624 18.930930 4.299694 24.080766 -4.671827 -2.749971 7.405928 0.000000 0.000000 0.000000 2.893488 0.758570 6.830176 -2.664356 6.836046 -33.320415 -8.976785 6.000585 23.166750 11.905257 1.465885 28.797522 0.000000 0.000000 0.000000 0.581509 0.946238 -1.198915 4.289143 3.720480 -0.281305 -1.099455 -4.763478 18.045770 0.014492 -0.053551 -0.040145 -0.869381 -3.622280 21.496106 -0.318518 -6.197427 24.350809 0.000000 0.000000 0.000000 0.140221 -3.328799 17.538958 -3.573105 -13.577430 0.906133 -67.933328 -21.236001 -1.118720 -147.989763 -80.763114 159.501419 0.000000 0.000000 0.000000 -3.122782 -1.696676 17.129824 21.978087 26.299203 -0.738042 68.694354 16.641291 6.323626 -153.392511 71.273980 -152.418485 0.000000 0.000000 0.000000 
-7.226275 35.209557 3.328088 -179.948792 47.965280 179.937331 -1.297240 -1.260354 8.243436 -20.646986 16.449981 -25.466251 19.514429 4.158299 24.542244 -4.882449 -2.930315 7.044550 0.000000 0.000000 0.000000 2.725612 0.818973 6.414325 -2.463636 7.043108 -32.918664 -8.972371 5.941270 22.996431 12.071535 1.419057 28.950467 0.000000 0.000000 0.000000 0.518983 1.112418 -1.322304 4.252331 3.659144 -0.314876 -0.948230 -4.801418 17.796427 -0.001533 -0.045100 -0.035119 -0.696069 -3.628593 21.238229 0.000522 -6.533166 24.740834 0.000000 0.000000 0.000000 0.279546 -3.313991 17.221641 -4.052467 -13.527579 1.044002 -68.177896 -19.721594 -0.119483 -147.609595 -81.242518 159.415072 0.000000 0.000000 0.000000 -2.981893 -1.675785 16.904266 21.527721 26.059970 -0.477966 69.119793 15.573467 5.677051 -151.854107 71.899407 -151.673640 0.000000 0.000000 0.000000 
-7.194486 35.172264 3.232772 -179.929026 48.780238 179.819128 -1.431054 -0.721588 8.048043 -20.642584 16.608430 -25.223013 20.064828 4.048051 25.206016 -4.963831 -3.006622 6.335373 0.000000 0.000000 0.000000 2.598624 1.198365 6.209912 -2.402345 7.257229 -32.518493 -8.978250 6.009527 22.965037 12.378622 1.668864 29.013428 0.000000 0.000000 0.000000 0.453112 1.279684 -1.306249 4.154657 3.899496 -0.265911 -0.753894 -4.864772 17.539256 0.028492 -0.007512 -0.042377 -0.516652 -3.660929 20.887219 0.194541 -6.719677 25.039366 0.000000 0.000000 0.000000 0.443391 -3.343263 16.874551 -4.218172 -13.470647 1.129180 -68.285110 -18.426638 0.930713 -146.756545 -81.580579 158.943789 0.000000 0.000000 0.000000 -2.795512 -1.717317 16.536831 21.109048 25.564894 -0.255429 69.421305 14.056082 5.090703 -150.837269 72.403741 -151.304823 0.000000 0.000000 0.000000 
-7.170144 35.151577 3.112758 -179.888386 49.304130 -179.943997 -1.496861 -0.573045 7.948213 -20.786351 16.764423 -25.291747 20.398886 4.009535 25.667685 -5.077354 -3.109961 5.785505 0.000000 0.000000 0.000000 2.536157 1.253696 6.101194 -2.527950 7.430553 -32.504501 -8.899034 5.960270 22.627554 12.652942 1.837588 29.027324 0.000000 0.000000 0.000000 0.439101 1.458238 -1.464055 4.008859 3.936621 -0.448364 -0.539226 -4.967927 17.194849 0.027717 0.025617 -0.013232 -0.328641 -3.768155 20.641219 0.158543 -6.830444 25.230978 0.000000 0.000000 0.000000 0.648320 -3.517050 16.586022 -4.104533 -13.440903 1.361751 -68.010277 -17.437039 2.089584 -146.199967 -81.631696 158.965331 0.000000 0.000000 0.000000 -2.613142 -1.855098 16.236113 20.637794 24.884917 -0.116755 69.649502 12.596868 4.643526 -150.437307 72.801265 -151.760301 0.000000 0.000000 0.000000 
-7.129117 35.163204 2.953240 -179.913166 49.726041 -179.929982 -1.604625 -0.405940 8.123830 -20.990980 16.868260 -25.270677 20.720313 3.967169 25.775867 -5.257061 -3.248803 5.498719 0.000000 0.000000 0.000000 2.463605 1.281263 6.280567 -2.768265 7.515389 -32.455580 -8.769236 5.907852 22.328626 12.850723 1.903947 29.052804 0.000000 0.000000 0.000000 0.457347 1.647593 -1.438035 3.840547 3.943659 -0.627381 -0.380147 -5.101850 16.811732 0.008379 -0.008434 -0.011622 -0.186148 -3.848605 20.278451 -0.051290 -6.656880 25.265421 0.000000 0.000000 0.000000 0.874345 -3.527569 16.220419 -3.834718 -13.339429 1.516132 -67.437600 -16.556133 3.856290 -144.412274 -81.768942 157.552219 0.000000 0.000000 0.000000 -2.416089 -1.925957 15.909969 20.316678 24.331417 -0.105729 69.687409 11.518678 4.639365 -150.511059 73.416515 -152.689330 0.000000 0.000000 0.000000 
-7.074461 35.204487 2.755203 -179.813445 49.938590 -179.837815 -1.787890 -0.318150 8.288610 -20.993119 16.809195 -25.245677 20.945315 3.935362 26.044917 -5.171140 -3.150987 5.092753 0.000000 0.000000 0.000000 2.498274 1.519724 6.537735 -3.044654 7.460876 -32.254745 -8.746756 5.893634 22.172799 13.055458 2.055341 28.832541 0.000000 0.000000 0.000000 0.509970 1.795417 -1.404398 3.793814 3.952606 -0.878322 -0.225811 -5.191172 16.398294 -0.010135 -0.000717 0.001254 -0.075510 -3.887639 19.868590 -0.440576 -6.685533 25.113566 0.000000 0.000000 0.000000 0.988276 -3.592326 15.880454 -3.609206 -13.233157 1.603808 -66.623885 -15.617781 5.918684 -142.783984 -82.062735 156.463747 0.000000 0.000000 0.000000 -2.270219 -1.976947 15.525502 20.127799 23.738976 -0.086090 69.350367 10.721833 5.010492 -151.059141 74.127374 -154.045054 0.000000 0.000000 0.000000 
-7.008560 35.244522 2.538371 -179.947126 49.865855 179.943205 -1.973306 -0.485910 8.712890 -21.244690 16.692269 -25.228608 21.160283 3.821402 26.015499 -5.143622 -3.039153 5.189871 0.000000 0.000000 0.000000 2.383841 1.452395 6.764408 -3.366793 7.580590 -31.939355 -8.622812 5.788830 22.172876 13.230836 2.090119 28.611087 0.000000 0.000000 0.000000 0.477519 1.849665 -1.372365 3.766225 3.975932 -1.137022 -0.150077 -5.239764 15.974190 0.010264 -0.021941 -0.027027 -0.007888 -3.940602 19.415105 -0.950688 -6.424808 24.791705 0.000000 0.000000 0.000000 1.098210 -3.633942 15.550806 -3.481910 -13.094577 1.702931 -65.497894 -14.495026 8.000199 -139.208790 -82.481692 153.412087 0.000000 0.000000 0.000000 -2.151703 -2.021691 15.101598 19.924005 23.173703 -0.020458 68.617610 9.825828 5.791935 -152.043754 74.950213 -155.723204 0.000000 0.000000 0.000000 
-6.929265 35.292973 2.305214 179.960253 49.743732 179.932987 -2.283502 -0.625673 8.906612 -21.313096 16.520144 -25.256129 21.364661 3.727326 26.271255 -4.997167 -2.833490 5.077568 0.000000 0.000000 0.000000 2.297091 1.425158 6.758363 -3.505254 7.129445 -31.493299 -8.593658 5.559612 22.296343 13.338123 2.355072 28.038866 0.000000 0.000000 0.000000 0.418871 1.787978 -1.614868 3.839611 3.989677 -1.474748 -0.138138 -5.231276 15.582093 0.031917 -0.033207 -0.034369 -0.022592 -3.897807 18.977908 -1.597408 -6.060550 24.315455 0.000000 0.000000 0.000000 1.112386 -3.628366 15.216379 -3.558209 -12.793503 1.794803 -64.293725 -13.146382 9.848468 -136.430652 -82.976130 151.074755 0.000000 0.000000 0.000000 -2.069905 -1.968600 14.728813 19.684161 22.566916 0.039475 67.488109 8.407144 6.699977 -153.938585 75.654508 -158.159847 0.000000 0.000000 0.000000 
-6.836156 35.355461 2.098927 -179.920420 49.504265 179.996767 -2.423799 -0.977594 9.035312 -21.130706 16.377233 -24.803227 21.347206 3.694290 26.261910 -4.863392 -2.648928 4.949602 0.000000 0.000000 0.000000 2.264896 1.232795 6.698513 -3.747723 7.155155 -30.818818 -8.294560 5.099869 22.183508 13.188679 2.039445 27.934787 0.000000 0.000000 0.000000 0.404791 1.645747 -1.929561 4.016801 3.970583 -1.803914 -0.179887 -5.211817 15.197401 0.041514 -0.045154 0.023435 -0.082189 -3.826102 18.462775 -2.410680 -5.597409 23.790215 0.000000 0.000000 0.000000 1.106200 -3.516149 14.825773 -3.740456 -12.228777 1.905683 -63.137429 -11.485710 11.255537 -133.760102 -83.424422 148.706974 0.000000 0.000000 0.000000 -2.069159 -1.909832 14.325249 19.260415 21.806996 -0.093282 65.990911 6.159935 7.353097 -156.813289 76.016344 -161.428352 0.000000 0.000000 0.000000 
-6.714296 35.430012 1.912461 -179.989213 49.266503 179.957576 -2.696871 -1.357020 9.022866 -20.735701 16.129729 -24.180408 21.225750 3.637390 26.011980 -4.731643 -2.505343 4.941545 0.000000 0.000000 0.000000 2.252173 1.113151 6.512439 -3.698867 6.551392 -29.928175 -8.370432 4.987717 21.885763 13.563197 1.675699 27.519023 0.000000 0.000000 0.000000 0.173874 1.495083 -2.286034 4.299201 4.035312 -2.138727 -0.196766 -5.061199 14.817115 0.040591 0.036703 0.027923 -0.141312 -3.771202 17.992424 -3.305092 -5.011883 23.256362 0.000000 0.000000 0.000000 1.027105 -3.534066 14.508860 -3.998932 -11.575100 2.006851 -62.404433 -9.565780 12.493747 -133.549774 -83.761178 148.657209 0.000000 0.000000 0.000000 -2.121835 -1.902481 13.924775 18.707314 20.774055 -0.220064 64.369328 3.367499 7.200488 -160.254393 76.031528 -165.106737 0.000000 0.000000 0.000000 
